name C:\Users\u0101727\Documents\MyRepositories\upper-imu-dc\Results\main_mocap_tracking\Case_8\kinematics.mot
datacolumns 12
datarows 27
range 3.50000000 3.76000000
endheader 
time	clav_prot	clav_elev	scapula_abduction	scapula_elevation	scapula_upward_rot	scapula_winging	plane_elv	shoulder_elv	axial_rot	elbow_flexion	pro_sup	
          3.50000000	        -48.85742832	         12.37505478	         -5.40556426	          0.59303562	         86.93948831	        -15.19109094	         39.20152963	         88.51899952	        -10.50694299	         -0.01105816	         34.32075044	
          3.51000000	        -48.85794972	         12.38999632	         -5.41981377	          0.60120949	         86.92699821	        -15.19694224	         39.26450622	         88.47878533	        -10.34747515	         -0.01236050	         34.32086808	
          3.52000000	        -48.85363739	         12.40430371	         -5.42831894	          0.60891361	         86.91118751	        -15.19956304	         39.31827502	         88.44040037	        -10.21894157	         -0.01268728	         34.32088746	
          3.53000000	        -48.84357156	         12.41698711	         -5.42924698	          0.61557423	         86.89209776	        -15.19803502	         39.36156012	         88.40477784	        -10.12091134	         -0.01196452	         34.32080412	
          3.54000000	        -48.82739176	         12.42723361	         -5.42146551	          0.62073966	         86.87014368	        -15.19183875	         39.39371223	         88.37232316	        -10.05208268	         -0.01023010	         34.32062489	
          3.55000000	        -48.80548557	         12.43444344	         -5.40490023	          0.62408155	         86.84606709	        -15.18101742	         39.41497848	         88.34284639	        -10.01028557	         -0.00764846	         34.32036864	
          3.56000000	        -48.77904095	         12.43822371	         -5.38071429	          0.62536815	         86.82081019	        -15.16624018	         39.42663417	         88.31564894	         -9.99279257	         -0.00450534	         34.32006521	
          3.57000000	        -48.74992048	         12.43837205	         -5.35122526	          0.62443978	         86.79534146	        -15.14873286	         39.43087465	         88.28975369	         -9.99701075	         -0.00117600	         34.31975262	
          3.58000000	        -48.72037618	         12.43487160	         -5.31956351	          0.62120503	         86.77047776	        -15.13008706	         39.43047193	         88.26421223	        -10.02122964	          0.00193279	         34.31947114	
          3.59000000	        -48.69267699	         12.42789742	         -5.28915970	          0.61565778	         86.74674421	        -15.11199714	         39.42829719	         88.23839786	        -10.06503441	          0.00445011	         34.31925647	
          3.60000000	        -48.66874361	         12.41782378	         -5.26318921	          0.60790453	         86.72430763	        -15.09599094	         39.42683590	         88.21219826	        -10.12923019	          0.00610006	         34.31913382	
          3.61000000	        -48.64988514	         12.40521628	         -5.24411696	          0.59818489	         86.70299516	        -15.08322172	         39.42782431	         88.18605763	        -10.21540722	          0.00673233	         34.31911510	
          3.62000000	        -48.63670547	         12.39080475	         -5.23346371	          0.58687482	         86.68238707	        -15.07437475	         39.43210060	         88.16085376	        -10.32528784	          0.00632560	         34.31919926	
          3.63000000	        -48.62917940	         12.37544003	         -5.23181794	          0.57447041	         86.66195360	        -15.06969330	         39.43968885	         88.13764247	        -10.45982068	          0.00497565	         34.31937424	
          3.64000000	        -48.62682995	         12.36003672	         -5.23900902	          0.56155404	         86.64119708	        -15.06907850	         39.45005369	         88.11734669	        -10.61799940	          0.00287078	         34.31961957	
          3.65000000	        -48.62892587	         12.34550829	         -5.25432493	          0.54875129	         86.61977754	        -15.07220544	         39.46241009	         88.10046516	        -10.79563206	          0.00026774	         34.31990853	
          3.66000000	        -48.63464638	         12.33269002	         -5.27669552	          0.53667810	         86.59760727	        -15.07861683	         39.47600200	         88.08685940	        -10.98447615	         -0.00252856	         34.32020987	
          3.67000000	        -48.64319078	         12.32224386	         -5.30480668	          0.52587555	         86.57490807	        -15.08777746	         39.49030378	         88.07564973	        -11.17208659	         -0.00518498	         34.32048955	
          3.68000000	        -48.65383653	         12.31455570	         -5.33716645	          0.51673645	         86.55221471	        -15.09909760	         39.50514070	         88.06523936	        -11.34259746	         -0.00736797	         34.32071327	
          3.69000000	        -48.66596206	         12.30965074	         -5.37217705	          0.50943620	         86.53029735	        -15.11194889	         39.52074078	         88.05348553	        -11.47860397	         -0.00878276	         34.32085009	
          3.70000000	        -48.67905067	         12.30715911	         -5.40826436	          0.50388501	         86.50998255	        -15.12569566	         39.53772704	         88.03802360	        -11.56419807	         -0.00921806	         34.32087708	
          3.71000000	        -48.69268802	         12.30635574	         -5.44407812	          0.49971915	         86.49189177	        -15.13975256	         39.55705950	         88.01669887	        -11.58872227	         -0.00858454	         34.32078432	
          3.72000000	        -48.70656016	         12.30628220	         -5.47871896	          0.49634641	         86.47617549	        -15.15365975	         39.57995323	         87.98797988	        -11.54998582	         -0.00693858	         34.32057816	
          3.73000000	        -48.72044940	         12.30593985	         -5.51190888	          0.49305279	         86.46234592	        -15.16715079	         39.60779710	         87.95120230	        -11.45543350	         -0.00448394	         34.32028230	
          3.74000000	        -48.73421188	         12.30452499	         -5.54402651	          0.48916001	         86.44926707	        -15.18018331	         39.64206664	         87.90657260	        -11.32061624	         -0.00154593	         34.31993454	
          3.75000000	        -48.74771868	         12.30165943	         -5.57597760	          0.48420199	         86.43528447	        -15.19291252	         39.68421199	         87.85497508	        -11.16548068	          0.00148057	         34.31958008	
          3.76000000	        -48.76076177	         12.29755871	         -5.60893287	          0.47807320	         86.41843209	        -15.20560995	         39.73552452	         87.79768261	        -11.00966765	          0.00420186	         34.31926308	
